<?xml version="1.0" encoding="utf-8"?>
<!-- Generator: Adobe Illustrator 22.0.0, SVG Export Plug-In . SVG Version: 6.00 Build 0)  -->
<svg version="1.1" id="图层_1" xmlns="http://www.w3.org/2000/svg" xmlns:xlink="http://www.w3.org/1999/xlink" x="0px" y="0px"
	 viewBox="0 0 120 227" style="enable-background:new 0 0 120 227;" xml:space="preserve">
<style type="text/css">
	.st0{fill:#91E2B7;}
	.st1{fill:#010165;}
</style>
<path id="Rectangle-3" class="st0" d="M3.9,0h112.1c2.2,0,3.9,1.8,3.9,3.9v219.1c0,2.2-1.8,3.9-3.9,3.9H3.9c-2.2,0-3.9-1.8-3.9-3.9
	V3.9C0,1.8,1.8,0,3.9,0z"/>
<g id="noun_1258010_cc" transform="translate(10.000000, 10.000000)">
	<path id="Shape" class="st1" d="M101,208V0H0v208h1.6H101z M3.2,3.3h94.5v201.5H3.2V3.3z"/>
	<path id="Shape_1_" class="st1" d="M85.5,112c-3.6,0-6.5,2.9-6.5,6.5s2.9,6.5,6.5,6.5s6.5-2.9,6.5-6.5S89.1,112,85.5,112z
		 M85.5,122.4c-2.1,0-3.9-1.7-3.9-3.9c0-2.1,1.7-3.9,3.9-3.9c2.1,0,3.9,1.7,3.9,3.9C89.4,120.6,87.6,122.4,85.5,122.4z"/>
</g>
</svg>
